<?xml version="1.0" encoding="UTF-8" standalone="no"?>
<!DOCTYPE svg PUBLIC "-//W3C//DTD SVG 1.1//EN"
 "http://www.w3.org/Graphics/SVG/1.1/DTD/svg11.dtd">
<!-- Generated by graphviz version 2.38.0 (20140413.2041)
 -->
<!-- Title: G Pages: 1 -->
<svg width="1217pt" height="305pt"
 viewBox="0.00 0.00 1216.89 305.00" xmlns="http://www.w3.org/2000/svg" xmlns:xlink="http://www.w3.org/1999/xlink">
<g id="graph0" class="graph" transform="scale(1 1) rotate(0) translate(4 301)">
<title>G</title>
<polygon fill="white" stroke="none" points="-4,4 -4,-301 1212.89,-301 1212.89,4 -4,4"/>
<!-- 0 -->
<g id="node1" class="node"><title>0</title>
<ellipse fill="none" stroke="black" cx="683.447" cy="-279" rx="38.9931" ry="18"/>
<text text-anchor="middle" x="683.447" y="-275.3" font-family="Times,serif" font-size="14.00">parser.h</text>
</g>
<!-- 1 -->
<g id="node2" class="node"><title>1</title>
<ellipse fill="none" stroke="black" cx="130.447" cy="-105" rx="67.6881" ry="18"/>
<text text-anchor="middle" x="130.447" y="-101.3" font-family="Times,serif" font-size="14.00">include_entry.h</text>
</g>
<!-- 0&#45;&gt;1 -->
<g id="edge8" class="edge"><title>0&#45;&gt;1</title>
<path fill="none" stroke="black" d="M649.259,-270.158C598.977,-258.393 502.292,-234.883 421.447,-210 333.712,-182.996 233.262,-145.631 176.286,-123.818"/>
<polygon fill="black" stroke="black" points="177.435,-120.51 166.844,-120.193 174.926,-127.045 177.435,-120.51"/>
<text text-anchor="middle" x="441.447" y="-188.3" font-family="Times,serif" font-size="14.00">line 34</text>
</g>
<!-- 2 -->
<g id="node3" class="node"><title>2</title>
<ellipse fill="none" stroke="black" cx="508.447" cy="-192" rx="37.8943" ry="18"/>
<text text-anchor="middle" x="508.447" y="-188.3" font-family="Times,serif" font-size="14.00">graph.h</text>
</g>
<!-- 0&#45;&gt;2 -->
<g id="edge9" class="edge"><title>0&#45;&gt;2</title>
<path fill="none" stroke="black" d="M650.733,-269.035C630.522,-262.923 604.354,-253.961 582.447,-243 566.181,-234.862 549.284,-223.684 535.75,-213.96"/>
<polygon fill="black" stroke="black" points="537.517,-210.916 527.383,-207.827 533.379,-216.561 537.517,-210.916"/>
<text text-anchor="middle" x="602.447" y="-231.8" font-family="Times,serif" font-size="14.00">line 35</text>
</g>
<!-- 4 -->
<g id="node5" class="node"><title>4</title>
<ellipse fill="none" stroke="black" cx="797.447" cy="-18" rx="42.4939" ry="18"/>
<text text-anchor="middle" x="797.447" y="-14.3" font-family="Times,serif" font-size="14.00">iostream</text>
</g>
<!-- 0&#45;&gt;4 -->
<g id="edge1" class="edge"><title>0&#45;&gt;4</title>
<path fill="none" stroke="black" d="M719.626,-272.243C752.755,-264.652 798.663,-247.551 812.447,-210 832.877,-154.345 817.586,-83.5981 806.412,-45.7555"/>
<polygon fill="black" stroke="black" points="809.694,-44.5194 803.403,-35.9944 803.005,-46.5817 809.694,-44.5194"/>
<text text-anchor="middle" x="843.447" y="-144.8" font-family="Times,serif" font-size="14.00">line 24</text>
</g>
<!-- 5 -->
<g id="node6" class="node"><title>5</title>
<ellipse fill="none" stroke="black" cx="597.447" cy="-192" rx="33.5952" ry="18"/>
<text text-anchor="middle" x="597.447" y="-188.3" font-family="Times,serif" font-size="14.00">thread</text>
</g>
<!-- 0&#45;&gt;5 -->
<g id="edge2" class="edge"><title>0&#45;&gt;5</title>
<path fill="none" stroke="black" d="M663.466,-263.467C655.678,-257.459 646.86,-250.218 639.447,-243 631.199,-234.969 622.886,-225.442 615.857,-216.87"/>
<polygon fill="black" stroke="black" points="618.546,-214.629 609.556,-209.023 613.088,-219.012 618.546,-214.629"/>
<text text-anchor="middle" x="659.447" y="-231.8" font-family="Times,serif" font-size="14.00">line 25</text>
</g>
<!-- 6 -->
<g id="node7" class="node"><title>6</title>
<ellipse fill="none" stroke="black" cx="683.447" cy="-192" rx="33.5952" ry="18"/>
<text text-anchor="middle" x="683.447" y="-188.3" font-family="Times,serif" font-size="14.00">mutex</text>
</g>
<!-- 0&#45;&gt;6 -->
<g id="edge3" class="edge"><title>0&#45;&gt;6</title>
<path fill="none" stroke="black" d="M683.447,-260.799C683.447,-249.163 683.447,-233.548 683.447,-220.237"/>
<polygon fill="black" stroke="black" points="686.947,-220.175 683.447,-210.175 679.947,-220.175 686.947,-220.175"/>
<text text-anchor="middle" x="703.447" y="-231.8" font-family="Times,serif" font-size="14.00">line 26</text>
</g>
<!-- 7 -->
<g id="node8" class="node"><title>7</title>
<ellipse fill="none" stroke="black" cx="769.447" cy="-192" rx="33.5952" ry="18"/>
<text text-anchor="middle" x="769.447" y="-188.3" font-family="Times,serif" font-size="14.00">deque</text>
</g>
<!-- 0&#45;&gt;7 -->
<g id="edge4" class="edge"><title>0&#45;&gt;7</title>
<path fill="none" stroke="black" d="M703.428,-263.467C711.216,-257.459 720.034,-250.218 727.447,-243 735.695,-234.969 744.008,-225.442 751.037,-216.87"/>
<polygon fill="black" stroke="black" points="753.806,-219.012 757.338,-209.023 748.348,-214.629 753.806,-219.012"/>
<text text-anchor="middle" x="760.947" y="-231.8" font-family="Times,serif" font-size="14.00">line 27</text>
</g>
<!-- 8 -->
<g id="node9" class="node"><title>8</title>
<ellipse fill="none" stroke="black" cx="34.4469" cy="-18" rx="34.394" ry="18"/>
<text text-anchor="middle" x="34.4469" y="-14.3" font-family="Times,serif" font-size="14.00">vector</text>
</g>
<!-- 0&#45;&gt;8 -->
<g id="edge5" class="edge"><title>0&#45;&gt;8</title>
<path fill="none" stroke="black" d="M645.373,-274.307C521.351,-261.457 132.423,-214.412 53.4469,-123 35.319,-102.018 31.97,-69.5812 32.27,-46.5169"/>
<polygon fill="black" stroke="black" points="35.774,-46.4682 32.6429,-36.3467 28.7787,-46.2117 35.774,-46.4682"/>
<text text-anchor="middle" x="113.947" y="-144.8" font-family="Times,serif" font-size="14.00">line 28</text>
</g>
<!-- 9 -->
<g id="node10" class="node"><title>9</title>
<ellipse fill="none" stroke="black" cx="938.447" cy="-192" rx="79.0865" ry="18"/>
<text text-anchor="middle" x="938.447" y="-188.3" font-family="Times,serif" font-size="14.00">condition_variable</text>
</g>
<!-- 0&#45;&gt;9 -->
<g id="edge6" class="edge"><title>0&#45;&gt;9</title>
<path fill="none" stroke="black" d="M720.304,-273.055C753.69,-267.875 803.868,-258.321 845.447,-243 865.62,-235.567 886.829,-224.45 903.89,-214.585"/>
<polygon fill="black" stroke="black" points="906.074,-217.36 912.909,-209.265 902.517,-211.331 906.074,-217.36"/>
<text text-anchor="middle" x="897.447" y="-231.8" font-family="Times,serif" font-size="14.00">line 29</text>
</g>
<!-- 10 -->
<g id="node11" class="node"><title>10</title>
<ellipse fill="none" stroke="black" cx="1122.45" cy="-192" rx="86.3847" ry="18"/>
<text text-anchor="middle" x="1122.45" y="-188.3" font-family="Times,serif" font-size="14.00">boost/filesystem.hpp</text>
</g>
<!-- 0&#45;&gt;10 -->
<g id="edge7" class="edge"><title>0&#45;&gt;10</title>
<path fill="none" stroke="black" d="M720.742,-273.662C767.762,-267.93 850.973,-256.913 921.447,-243 969.417,-233.53 1023.14,-220.014 1062.96,-209.421"/>
<polygon fill="black" stroke="black" points="1064.02,-212.761 1072.78,-206.795 1062.21,-205.999 1064.02,-212.761"/>
<text text-anchor="middle" x="1007.95" y="-231.8" font-family="Times,serif" font-size="14.00">line 31</text>
</g>
<!-- 1&#45;&gt;4 -->
<g id="edge12" class="edge"><title>1&#45;&gt;4</title>
<path fill="none" stroke="black" d="M178.949,-92.3506C188.052,-90.3919 197.515,-88.5085 206.447,-87 404.593,-53.5357 642.934,-31.6592 745.913,-23.0869"/>
<polygon fill="black" stroke="black" points="746.359,-26.5621 756.037,-22.2508 745.783,-19.5858 746.359,-26.5621"/>
<text text-anchor="middle" x="453.447" y="-57.8" font-family="Times,serif" font-size="14.00">line 26</text>
</g>
<!-- 1&#45;&gt;8 -->
<g id="edge13" class="edge"><title>1&#45;&gt;8</title>
<path fill="none" stroke="black" d="M109.633,-87.5662C102.504,-81.8047 94.5405,-75.2182 87.4469,-69 77.34,-60.1403 66.493,-50.0219 57.2612,-41.2159"/>
<polygon fill="black" stroke="black" points="59.5753,-38.5856 49.9381,-34.1839 54.7269,-43.6347 59.5753,-38.5856"/>
<text text-anchor="middle" x="106.947" y="-57.8" font-family="Times,serif" font-size="14.00">line 27</text>
</g>
<!-- 11 -->
<g id="node12" class="node"><title>11</title>
<ellipse fill="none" stroke="black" cx="130.447" cy="-18" rx="42.4939" ry="18"/>
<text text-anchor="middle" x="130.447" y="-14.3" font-family="Times,serif" font-size="14.00">memory</text>
</g>
<!-- 1&#45;&gt;11 -->
<g id="edge10" class="edge"><title>1&#45;&gt;11</title>
<path fill="none" stroke="black" d="M130.447,-86.799C130.447,-75.1626 130.447,-59.5479 130.447,-46.2368"/>
<polygon fill="black" stroke="black" points="133.947,-46.1754 130.447,-36.1754 126.947,-46.1755 133.947,-46.1754"/>
<text text-anchor="middle" x="150.447" y="-57.8" font-family="Times,serif" font-size="14.00">line 24</text>
</g>
<!-- 12 -->
<g id="node13" class="node"><title>12</title>
<ellipse fill="none" stroke="black" cx="217.447" cy="-18" rx="27" ry="18"/>
<text text-anchor="middle" x="217.447" y="-14.3" font-family="Times,serif" font-size="14.00">map</text>
</g>
<!-- 1&#45;&gt;12 -->
<g id="edge11" class="edge"><title>1&#45;&gt;12</title>
<path fill="none" stroke="black" d="M152.613,-87.6888C159.82,-82.0441 167.695,-75.4978 174.447,-69 182.949,-60.8177 191.575,-51.1197 198.846,-42.4526"/>
<polygon fill="black" stroke="black" points="201.704,-44.4878 205.355,-34.5419 196.299,-40.0402 201.704,-44.4878"/>
<text text-anchor="middle" x="208.447" y="-57.8" font-family="Times,serif" font-size="14.00">line 25</text>
</g>
<!-- 2&#45;&gt;1 -->
<g id="edge17" class="edge"><title>2&#45;&gt;1</title>
<path fill="none" stroke="black" d="M474.902,-183.457C410.964,-169.079 270.868,-137.576 190.428,-119.488"/>
<polygon fill="black" stroke="black" points="190.969,-116.022 180.444,-117.243 189.433,-122.851 190.969,-116.022"/>
<text text-anchor="middle" x="362.447" y="-144.8" font-family="Times,serif" font-size="14.00">line 29</text>
</g>
<!-- 2&#45;&gt;4 -->
<g id="edge14" class="edge"><title>2&#45;&gt;4</title>
<path fill="none" stroke="black" d="M537.032,-180.03C542.77,-177.943 548.778,-175.839 554.447,-174 634.355,-148.085 669.918,-174.29 736.447,-123 762.122,-103.206 779.057,-69.298 788.43,-45.5978"/>
<polygon fill="black" stroke="black" points="791.744,-46.7285 791.988,-36.1365 785.192,-44.2648 791.744,-46.7285"/>
<text text-anchor="middle" x="787.447" y="-101.3" font-family="Times,serif" font-size="14.00">line 24</text>
</g>
<!-- 13 -->
<g id="node14" class="node"><title>13</title>
<ellipse fill="none" stroke="black" cx="603.447" cy="-105" rx="124.278" ry="18"/>
<text text-anchor="middle" x="603.447" y="-101.3" font-family="Times,serif" font-size="14.00">boost/graph/adjacency_list.hpp</text>
</g>
<!-- 2&#45;&gt;13 -->
<g id="edge15" class="edge"><title>2&#45;&gt;13</title>
<path fill="none" stroke="black" d="M525.431,-175.804C539.741,-163 560.458,-144.463 576.948,-129.71"/>
<polygon fill="black" stroke="black" points="579.538,-132.089 584.657,-122.812 574.87,-126.872 579.538,-132.089"/>
<text text-anchor="middle" x="582.447" y="-144.8" font-family="Times,serif" font-size="14.00">line 26</text>
</g>
<!-- 14 -->
<g id="node15" class="node"><title>14</title>
<ellipse fill="none" stroke="black" cx="338.447" cy="-105" rx="122.678" ry="18"/>
<text text-anchor="middle" x="338.447" y="-101.3" font-family="Times,serif" font-size="14.00">boost/graph/labeled_graph.hpp</text>
</g>
<!-- 2&#45;&gt;14 -->
<g id="edge16" class="edge"><title>2&#45;&gt;14</title>
<path fill="none" stroke="black" d="M483.363,-178.458C456.295,-164.924 412.733,-143.143 380.429,-126.991"/>
<polygon fill="black" stroke="black" points="381.728,-123.727 371.218,-122.386 378.597,-129.988 381.728,-123.727"/>
<text text-anchor="middle" x="453.947" y="-144.8" font-family="Times,serif" font-size="14.00">line 27</text>
</g>
<!-- 3 -->
<g id="node4" class="node"><title>3</title>
<ellipse fill="none" stroke="black" cx="917.447" cy="-105" rx="57.6901" ry="18"/>
<text text-anchor="middle" x="917.447" y="-101.3" font-family="Times,serif" font-size="14.00">_template_.h</text>
</g>
<!-- 3&#45;&gt;4 -->
<g id="edge18" class="edge"><title>3&#45;&gt;4</title>
<path fill="none" stroke="black" d="M895.157,-88.2114C875.856,-74.5396 847.799,-54.6661 826.697,-39.7186"/>
<polygon fill="black" stroke="black" points="828.595,-36.774 818.412,-33.8499 824.549,-42.4862 828.595,-36.774"/>
<text text-anchor="middle" x="885.447" y="-57.8" font-family="Times,serif" font-size="14.00">line 24</text>
</g>
</g>
</svg>
